<svg xmlns="http://www.w3.org/2000/svg" viewBox="0 0 128 128"><path d="m106.55 95.75v-49l-42.47-24.57-42.47 24.52v49.05l42.47 24.52z" fill="#0058c3"/><path d="m64.08 22.18-42.47 24.52v49l42.47 24.52z" fill="#0368d9"/><path d="m125 41.24-54.44-31.42a13.14 13.14 0 0 0 -13.12 0l-54.44 31.42a6.05 6.05 0 0 0 0 10.49l54.45 31.42a13.14 13.14 0 0 0 13.12 0l54.43-31.42a6.05 6.05 0 0 0 0-10.49z" fill="#0071f0"/><g fill="#489af8"><path d="m62.27 44.89 37.09 21.41 13.55-7.82-37.08-21.42z"/><path d="m99.37 66.31v33l6.71 7.42 6.84-11v-37.25z"/></g></svg>
